<svg xmlns="http://www.w3.org/2000/svg" viewBox="356.4 206.7 248.9 45" enable-background="new 356.4 206.7 248.9 45"><path fill="#F47F48" d="M363.1 251c8.7 3 17.4-4.5 23.4-13.9 5.5-8.7 8.2-21.1.3-24.4-1.7-1.8-4.9-2.4-8.8-1.1-7.6 2.6-20.6 14.5-21.6 27.8-.3 5.1 1.4 9.8 6.7 11.6zm3.8-24.2c6.8-9.3 15.4-13.7 18.5-12.6 3.5 1.2 3.1 10.6-3.6 21.2-6.2 9.8-14.3 14.9-18.4 13.2-4.3-1.7-3.5-12.4 3.5-21.8z"/><path fill="#00B7A3" d="M365.5 249.8c8.7 3 17.4-4.5 23.4-13.9 5.5-8.7 8.2-21.1.3-24.4-1.7-1.8-4.9-2.4-8.8-1.1-7.6 2.6-20.6 14.5-21.6 27.8-.3 5.1 1.4 9.8 6.7 11.6zm3.8-24.2c6.8-9.3 15.4-13.7 18.5-12.6 3.5 1.2 3.1 10.6-3.6 21.2-6.2 9.8-14.3 14.9-18.4 13.2-4.3-1.7-3.5-12.3 3.5-21.8z"/><path fill="#F47F48" d="M386 250.9c.4.5.8.4 1.1-.2 2.5-4.9 5.1-9.6 7.7-13.9 2.9 4.4 5.5 8.9 7.6 13.5.3.6.7.6 1.2.1 1.1-1.2 1.8-3.4.5-7-.7-1.7-2.2-4.6-4.1-7.8 9.3-6.1 18.7-13.9 21.9-17.8 2.6-3.1 2.8-5.2 2.5-6.6-.2-.6-.7-.6-1.2-.1-6.7 6.6-16.4 14.6-25.4 20.9 2.7-4.2 5.1-8 7-11 3-4.8 2.9-7.8 2.2-9.2-.5-.8-.9-.9-1.6-.1-4.4 5.4-17.1 26.9-19.1 32.2-1.6 3.8-1.2 5.7-.3 7z"/><path fill="#00B7A3" d="M388.4 249.7c.4.5.8.4 1.1-.2 2.5-4.9 5.1-9.6 7.7-13.9 2.9 4.4 5.5 8.9 7.6 13.5.3.6.7.6 1.2.1 1.1-1.2 1.8-3.4.5-7-.7-1.7-2.2-4.6-4.1-7.8 9.3-6.1 18.7-13.9 21.9-17.8 2.6-3.1 2.8-5.2 2.5-6.6-.2-.6-.7-.6-1.2-.1-6.7 6.6-16.4 14.6-25.4 20.9 2.7-4.2 5.1-8 7-11 3-4.8 2.9-7.8 2.2-9.2-.5-.8-.9-.9-1.6-.1-4.4 5.4-17.1 26.9-19.1 32.2-1.6 3.8-1.2 5.7-.3 7z"/><path fill="#F47F48" d="M427.3 248.7c3.4 1.8 8.9 1.7 13.8-1.5 2.9-1.9 7.4-6.7 6.1-10.9-.3-.8-1-.8-1.4-.1-5.6 9.4-12.9 13.8-16.8 10.6-3-2.5-3-11.7 3.4-21 6.5-9.5 16.9-14.7 18.6-12.9 1.4 1.5-1.2 5.1-2.5 8.4-1.2 3.2-.3 5.1 1.1 6 .7.5 1.2.1 1.5-.4.8-1.8 1.9-4.3 3.1-6.3s1.4-3.7 1-5.5c-.4-1.6-1.8-3.4-3.1-4.5-2-1.7-5.2-1.4-8.8 0-7.5 2.8-20 14.4-20.6 27.7-.5 5.1 1.7 9 4.6 10.4z"/><path fill="#00B7A3" d="M429.7 247.5c3.4 1.8 8.9 1.7 13.8-1.5 2.9-1.9 7.4-6.7 6.1-10.9-.3-.8-1-.8-1.4-.1-5.6 9.4-12.9 13.8-16.8 10.6-3-2.5-3-11.7 3.4-21 6.5-9.5 16.9-14.7 18.6-12.9 1.4 1.5-1.2 5.1-2.5 8.4-1.2 3.2-.3 5.1 1.1 6 .7.5 1.2.1 1.5-.4.8-1.8 1.9-4.3 3.1-6.3s1.4-3.7 1-5.5c-.4-1.6-1.8-3.4-3.1-4.5-2-1.7-5.2-1.4-8.8 0-7.5 2.8-20 14.4-20.6 27.7-.5 5.1 1.7 9 4.6 10.4z"/><path fill="#F47F48" d="M556.8 222.6c.9-.9 1.5-2.6.8-4.2-.7-1.7-2.6-2.4-3.7-1.3-1.1 1.1-1.6 3-.7 4.7.9 1.6 2.7 1.7 3.6.8z"/><path fill="#00B7A3" d="M559.2 221.4c.9-.9 1.5-2.6.8-4.2-.7-1.7-2.6-2.4-3.7-1.3-1.1 1.1-1.6 3-.7 4.7.9 1.6 2.7 1.7 3.6.8z"/><path stroke="#fff" stroke-width=".598" d="M559.2 221.4c.9-.9 1.5-2.6.8-4.2-.7-1.7-2.6-2.4-3.7-1.3-1.1 1.1-1.6 3-.7 4.7.9 1.6 2.7 1.7 3.6.8z" fill="none"/><path fill="#F47F48" d="M599 243.6c-2.2 1.3-2.9 2.5-3.8 2.4-1.9 0-2.5-2.5-1.2-5.7 1.3-3.3 4.8-7.3 7.9-10.5 2-2.1.7-4.8-.5-6.1-.4-.5-1-.4-1.8.2-2.5 1.7-4.8 2.7-6.9 3 1.9-4 2.7-7.6.7-7.5-2.4.1-8.6 7.6-5.1 9.9-2.7 3.4-7.5 9.3-9.2 12.1-.4.7-.7 1.3-1 1.9-2 1.8-4 2.9-5.6 2.8-2.9-.2-1.8-5.4 1.2-11.6 6.1-3.7 13.9-11.4 16.5-19.1 1-3 .8-5.3-1-6.9-.9-.8-1.8-.7-2.8.4-7.1 6.8-15.4 18.3-18.6 29.2-.2.7-.4 1.4-.5 2-2.8 3.6-6.4 6.4-8.9 6.3-2.9-.2-1.8-5.4 1.2-11.6 6.1-3.7 13.9-11.4 16.5-19.1 1-3 .8-5.3-1-6.9-.9-.8-1.8-.7-2.8.4-7.1 6.8-15.4 18.3-18.6 29.2-.2.8-.4 1.5-.5 2.1-2.3 3.3-5.2 6.1-7.6 6.2-2.1.2-2.1-2.3-.2-6 1.6-3.2 4.6-7.5 6.2-10.3 1.8-3.2 1.5-5.9.5-6.8-.5-.6-1-.4-1.6.4-2.7 3.3-7.5 10.8-9.5 15.4-.3.6-.5 1.3-.7 1.9-2.9 3-6.7 5.7-10.7 5.7-3.9 0-4.9-5.2-.8-12.3 3.3-5.8 8.5-9.9 9.6-9 .9.7-1.3 3.4-2.2 5.7-1.1 2.8-.3 4.7 1.2 5.4.8.4 1.1.2 1.4-.5 1.5-3.4 4.4-6.8 3.2-9.4-.7-1.4-1.7-2.4-3.4-3.4-3.1-1.8-10 1.7-14.7 9.7-1.8 3-2.6 6-2.5 8.5-2.3 3.1-4.8 5.5-6.8 5.6-2.4.2-2.5-2.8-.6-6.4 1.7-3.3 5.3-8 6.8-10.8 1.9-3.3.1-6.3-2.1-6.6-2.1-.3-6.8 3.2-10 6.3.9-2.3 1.1-4.4.2-6-.3-.6-.9-.7-1.4 0-4.5 5.9-10.2 14.7-11.8 18.7-.3.8-.6 1.6-.7 2.3-1.6 1.7-3.3 2.8-4.6 2.9-2.4.2-2.4-2.4-.5-6.1 1.7-3.3 5.3-7.9 6.9-10.8 1.8-3.2 1.5-5.9.6-7-.5-.6-1-.4-1.7.4-2.2 2.7-4.4 7.1-8.9 13.5-3.9 5.5-7.8 9.8-10.4 9.7-1.4-.1-1.5-2.3.1-5.4 1.5-3 3.1-5.5 5.8-9.2 2.6-3.7 3.1-6.4 1.8-8.4-.5-.6-1.1-.6-1.6.1-.9 1.1-2 2.5-2.7 3.5-2.5 3.5-6.3 6.5-10 6.6.1-.5.2-.9.2-1.3.7-4.7-1.2-5-2.6-6.9-1.3-1.7-2.3-2.2-4.3-2.1-3.9.3-8.2 3.9-11 8.3-3.2 5.1-4.6 10.5-2 14.1 2.3 3.2 5.6 3.4 8.1 2.6 4.8-1.6 9.2-7.9 11.1-13.2 2 .2 4.1-.4 6-1.2-1.2 2-2.2 3.9-2.9 5.4-1.7 4.2-1.9 8.7 2.7 9 3.7.3 7.3-3.1 9.8-6.1-.8 3.6.7 6.1 4.9 6.1 1.8 0 3.7-.8 5.5-1.9.2.5.4.9.8 1.3.5.6 1 .3 1.3-.3 3.2-5.9 6.5-12 10.7-16.1 4.5-4.5 8.4-6.3 9.1-6 1.1.5-5.1 7.2-7.7 13.4-2.3 5.5-1.2 9.4 4.3 9.3 2.9 0 6.2-2 8.4-4.5 1.1 2.6 3.7 4.2 7.5 4.1 3.5-.1 7.3-1.7 10.1-4 .2 2.3 1.8 3.8 4.8 3.7 2.8 0 6-1.6 8.3-4.2.5 2.6 2.5 3.8 5.3 3.8 3.3 0 6.5-2.1 8.8-4.1.5 2.6 2.5 3.8 5.3 3.8 1.7 0 3.4-.6 5-1.4.1 1.1.4 2.1 1.2 2.9.5.6 1 .2 1.1-.3.7-2.3 2.1-5 3.8-7.9.1-.2.2-.3.3-.4 2.6-4.1 5.6-8.3 7.2-10.9 2 0 4.8-.6 7.8-2.5-2.8 2.9-6.9 7.5-8.7 11.6-2 4.7-.4 8.8 4.3 9 1.1 0 3.4-.7 5.4-3 2.2-2.3 1.5-2.3-.7-1.1zm-22.2-15c5.1-8.1 10.4-15.2 11.2-14.7.8.5-3.6 10.6-13 17.7.6-.9 1.2-2 1.8-3zm-14 .3c5.1-8.1 10.4-15.2 11.2-14.7.8.5-3.6 10.6-13 17.7.5-1 1.1-2 1.8-3zm-100 11.3c-3.7 5.8-7.9 8.1-9.5 6.7-1.6-1.4-.3-7.1 2.8-11.9 1.6-2.5 3.7-4.6 5.5-6-.2 2.6 1.7 5 3.8 6.1-.7 1.6-1.5 3.3-2.6 5.1zm3.2-6.9c-1.1-1-1.5-2.5-1.2-4.2.3-1.8 1.9-2.2 2-.2 0 1-.1 2.5-.8 4.4z"/><path fill="#00B7A3" d="M601.3 242.4c-2.2 1.3-2.9 2.5-3.8 2.4-1.9 0-2.5-2.5-1.2-5.7 1.3-3.3 4.8-7.3 7.9-10.5 2-2.1.7-4.8-.5-6.1-.4-.5-1-.4-1.8.2-2.5 1.7-4.8 2.7-6.9 3 1.9-4 2.7-7.6.7-7.5-2.4.1-8.6 7.6-5.1 9.9-2.7 3.4-7.5 9.3-9.2 12.1-.4.7-.7 1.3-1 1.9-2 1.8-4 2.9-5.6 2.8-2.9-.2-1.8-5.4 1.2-11.6 6.1-3.7 13.9-11.4 16.5-19.1 1-3 .8-5.3-1-6.9-.9-.8-1.8-.7-2.8.4-7.1 6.8-15.4 18.3-18.6 29.2-.2.7-.4 1.4-.5 2-2.8 3.6-6.4 6.4-8.9 6.3-2.9-.2-1.8-5.4 1.2-11.6 6.1-3.7 13.9-11.4 16.5-19.1 1-3 .8-5.3-1-6.9-.9-.8-1.8-.7-2.8.4-7.1 6.8-15.4 18.3-18.6 29.2-.2.8-.4 1.5-.5 2.1-2.3 3.3-5.2 6.1-7.6 6.2-2.1.2-2.1-2.3-.2-6 1.6-3.2 4.6-7.5 6.2-10.3 1.8-3.2 1.5-5.9.5-6.8-.5-.6-1-.4-1.6.4-2.7 3.3-7.5 10.8-9.5 15.4-.3.6-.5 1.3-.7 1.9-2.9 3-6.7 5.7-10.7 5.7-3.9 0-4.9-5.2-.8-12.3 3.3-5.8 8.5-9.9 9.6-9 .9.7-1.3 3.4-2.2 5.7-1.1 2.8-.3 4.7 1.2 5.4.8.4 1.1.2 1.4-.5 1.5-3.4 4.4-6.8 3.2-9.4-.7-1.4-1.7-2.4-3.4-3.4-3.1-1.8-10 1.7-14.7 9.7-1.8 3-2.6 6-2.5 8.5-2.3 3.1-4.8 5.5-6.8 5.6-2.4.2-2.5-2.8-.6-6.4 1.7-3.3 5.3-8 6.8-10.8 1.9-3.3.1-6.3-2.1-6.6-2.1-.3-6.8 3.2-10 6.3.9-2.3 1.1-4.4.2-6-.3-.6-.9-.7-1.4 0-4.5 5.9-10.2 14.7-11.8 18.7-.3.8-.6 1.6-.7 2.3-1.6 1.7-3.3 2.8-4.6 2.9-2.4.2-2.4-2.4-.5-6.1 1.7-3.3 5.3-7.9 6.9-10.8 1.8-3.2 1.5-5.9.6-7-.5-.6-1-.4-1.7.4-2.2 2.7-4.4 7.1-8.9 13.5-3.9 5.5-7.8 9.8-10.4 9.7-1.4-.1-1.5-2.3.1-5.4 1.5-3 3.1-5.5 5.8-9.2 2.6-3.7 3.1-6.4 1.8-8.4-.5-.6-1.1-.6-1.6.1-.9 1.1-2 2.5-2.7 3.5-2.5 3.5-6.3 6.5-10 6.6.1-.5.2-.9.2-1.3.7-4.7-1.2-5-2.6-6.9-1.3-1.7-2.3-2.2-4.3-2.1-3.9.3-8.2 3.9-11 8.3-3.2 5.1-4.6 10.5-2 14.1 2.3 3.2 5.6 3.4 8.1 2.6 4.8-1.6 9.2-7.9 11.1-13.2 2 .2 4.1-.4 6-1.2-1.2 2-2.2 3.9-2.9 5.4-1.7 4.2-1.9 8.7 2.7 9 3.7.3 7.3-3.1 9.8-6.1-.8 3.6.7 6.1 4.9 6.1 1.8 0 3.7-.8 5.5-1.9.2.5.4.9.8 1.3.5.6 1 .3 1.3-.3 3.2-5.9 6.5-12 10.7-16.1 4.5-4.5 8.4-6.3 9.1-6 1.1.5-5.1 7.2-7.7 13.4-2.3 5.5-1.2 9.4 4.3 9.3 2.9 0 6.2-2 8.4-4.5 1.1 2.6 3.7 4.2 7.5 4.1 3.5-.1 7.3-1.7 10.1-4 .2 2.3 1.8 3.8 4.8 3.7 2.8 0 6-1.6 8.3-4.2.5 2.6 2.5 3.8 5.3 3.8 3.3 0 6.5-2.1 8.8-4.1.5 2.6 2.5 3.8 5.3 3.8 1.7 0 3.4-.6 5-1.4.1 1.1.4 2.1 1.2 2.9.5.6 1 .2 1.1-.3.7-2.3 2.1-5 3.8-7.9.1-.2.2-.3.3-.4 2.6-4.1 5.6-8.3 7.2-10.9 2 0 4.8-.6 7.8-2.5-2.8 2.9-6.9 7.5-8.7 11.6-2 4.7-.4 8.8 4.3 9 1.1 0 3.4-.7 5.4-3 2.3-2.3 1.6-2.3-.7-1.1zm-22.1-15c5.1-8.1 10.4-15.2 11.2-14.7.8.5-3.6 10.6-13 17.7.6-.9 1.2-1.9 1.8-3zm-14 .3c5.1-8.1 10.4-15.2 11.2-14.7.8.5-3.6 10.6-13 17.7.5-1 1.1-2 1.8-3zm-100 11.3c-3.7 5.8-7.9 8.1-9.5 6.7-1.6-1.4-.3-7.1 2.8-11.9 1.6-2.5 3.7-4.6 5.5-6-.2 2.6 1.7 5 3.8 6.1-.7 1.6-1.5 3.3-2.6 5.1zm3.2-6.9c-1.1-1-1.5-2.5-1.2-4.2.3-1.8 1.9-2.2 2-.2 0 1-.1 2.5-.8 4.4z"/></svg>